<svg width="176" height="123" xmlns="http://www.w3.org/2000/svg" xmlns:xlink="http://www.w3.org/1999/xlink" xml:space="preserve" overflow="hidden"><defs><clipPath id="clip0"><rect x="0" y="0" width="176" height="123"/></clipPath></defs><g clip-path="url(#clip0)"><path d="M7 3.5C7 5.433 5.433 7 3.5 7 1.567 7 4.44089e-16 5.433 4.44089e-16 3.5 0 1.567 1.567 0 3.5 -4.44089e-16 5.433 -8.88178e-16 7 1.567 7 3.5Z" fill="#DBB4B1" fill-opacity="0.3"/><path d="M20 3.5C20 5.433 18.433 7 16.5 7 14.567 7 13 5.433 13 3.5 13 1.567 14.567 0 16.5 -4.44089e-16 18.433 -8.88178e-16 20 1.567 20 3.5Z" fill="#DBB4B1" fill-opacity="0.3"/><path d="M33 3.5C33 5.433 31.433 7 29.5 7 27.567 7 26 5.433 26 3.5 26 1.567 27.567 0 29.5 -4.44089e-16 31.433 -8.88178e-16 33 1.567 33 3.5Z" fill="#DBB4B1" fill-opacity="0.3"/><path d="M46 3.5C46 5.433 44.433 7 42.5 7 40.567 7 39 5.433 39 3.5 39 1.567 40.567 0 42.5 -4.44089e-16 44.433 -8.88178e-16 46 1.567 46 3.5Z" fill="#DBB4B1" fill-opacity="0.3"/><path d="M59 3.5C59 5.433 57.433 7 55.5 7 53.567 7 52 5.433 52 3.5 52 1.567 53.567 0 55.5 -4.44089e-16 57.433 -8.88178e-16 59 1.567 59 3.5Z" fill="#DBB4B1" fill-opacity="0.3"/><path d="M72 3.5C72 5.433 70.433 7 68.5 7 66.567 7 65 5.433 65 3.5 65 1.567 66.567 0 68.5 -4.44089e-16 70.433 -8.88178e-16 72 1.567 72 3.5Z" fill="#DBB4B1" fill-opacity="0.3"/><path d="M85 3.5C85 5.433 83.433 7 81.5 7 79.567 7 78 5.433 78 3.5 78 1.567 79.567 0 81.5 -4.44089e-16 83.433 -8.88178e-16 85 1.567 85 3.5Z" fill="#DBB4B1" fill-opacity="0.3"/><path d="M7 16.5C7 18.433 5.433 20 3.5 20 1.567 20 4.44089e-16 18.433 4.44089e-16 16.5 0 14.567 1.567 13 3.5 13 5.433 13 7 14.567 7 16.5Z" fill="#DBB4B1" fill-opacity="0.3"/><path d="M20 16.5C20 18.433 18.433 20 16.5 20 14.567 20 13 18.433 13 16.5 13 14.567 14.567 13 16.5 13 18.433 13 20 14.567 20 16.5Z" fill="#DBB4B1" fill-opacity="0.3"/><path d="M33 16.5C33 18.433 31.433 20 29.5 20 27.567 20 26 18.433 26 16.5 26 14.567 27.567 13 29.5 13 31.433 13 33 14.567 33 16.5Z" fill="#DBB4B1" fill-opacity="0.3"/><path d="M46 16.5C46 18.433 44.433 20 42.5 20 40.567 20 39 18.433 39 16.5 39 14.567 40.567 13 42.5 13 44.433 13 46 14.567 46 16.5Z" fill="#DBB4B1" fill-opacity="0.3"/><path d="M59 16.5C59 18.433 57.433 20 55.5 20 53.567 20 52 18.433 52 16.5 52 14.567 53.567 13 55.5 13 57.433 13 59 14.567 59 16.5Z" fill="#DBB4B1" fill-opacity="0.3"/><path d="M72 16.5C72 18.433 70.433 20 68.5 20 66.567 20 65 18.433 65 16.5 65 14.567 66.567 13 68.5 13 70.433 13 72 14.567 72 16.5Z" fill="#DBB4B1" fill-opacity="0.3"/><path d="M85 16.5C85 18.433 83.433 20 81.5 20 79.567 20 78 18.433 78 16.5 78 14.567 79.567 13 81.5 13 83.433 13 85 14.567 85 16.5Z" fill="#DBB4B1" fill-opacity="0.3"/><path d="M7 29.5C7 31.433 5.433 33 3.5 33 1.567 33 4.44089e-16 31.433 4.44089e-16 29.5 0 27.567 1.567 26 3.5 26 5.433 26 7 27.567 7 29.5Z" fill="#DBB4B1" fill-opacity="0.3"/><path d="M20 29.5C20 31.433 18.433 33 16.5 33 14.567 33 13 31.433 13 29.5 13 27.567 14.567 26 16.5 26 18.433 26 20 27.567 20 29.5Z" fill="#DBB4B1" fill-opacity="0.3"/><path d="M33 29.5C33 31.433 31.433 33 29.5 33 27.567 33 26 31.433 26 29.5 26 27.567 27.567 26 29.5 26 31.433 26 33 27.567 33 29.5Z" fill="#DBB4B1" fill-opacity="0.3"/><path d="M46 29.5C46 31.433 44.433 33 42.5 33 40.567 33 39 31.433 39 29.5 39 27.567 40.567 26 42.5 26 44.433 26 46 27.567 46 29.5Z" fill="#DBB4B1" fill-opacity="0.3"/><path d="M59 29.5C59 31.433 57.433 33 55.5 33 53.567 33 52 31.433 52 29.5 52 27.567 53.567 26 55.5 26 57.433 26 59 27.567 59 29.5Z" fill="#DBB4B1" fill-opacity="0.3"/><path d="M72 29.5C72 31.433 70.433 33 68.5 33 66.567 33 65 31.433 65 29.5 65 27.567 66.567 26 68.5 26 70.433 26 72 27.567 72 29.5Z" fill="#DBB4B1" fill-opacity="0.3"/><path d="M85 29.5C85 31.433 83.433 33 81.5 33 79.567 33 78 31.433 78 29.5 78 27.567 79.567 26 81.5 26 83.433 26 85 27.567 85 29.5Z" fill="#DBB4B1" fill-opacity="0.3"/><path d="M7 42.5C7 44.433 5.433 46 3.5 46 1.567 46 4.44089e-16 44.433 4.44089e-16 42.5 0 40.567 1.567 39 3.5 39 5.433 39 7 40.567 7 42.5Z" fill="#DBB4B1" fill-opacity="0.3"/><path d="M20 42.5C20 44.433 18.433 46 16.5 46 14.567 46 13 44.433 13 42.5 13 40.567 14.567 39 16.5 39 18.433 39 20 40.567 20 42.5Z" fill="#DBB4B1" fill-opacity="0.3"/><path d="M33 42.5C33 44.433 31.433 46 29.5 46 27.567 46 26 44.433 26 42.5 26 40.567 27.567 39 29.5 39 31.433 39 33 40.567 33 42.5Z" fill="#DBB4B1" fill-opacity="0.3"/><path d="M46 42.5C46 44.433 44.433 46 42.5 46 40.567 46 39 44.433 39 42.5 39 40.567 40.567 39 42.5 39 44.433 39 46 40.567 46 42.5Z" fill="#DBB4B1" fill-opacity="0.3"/><path d="M59 42.5C59 44.433 57.433 46 55.5 46 53.567 46 52 44.433 52 42.5 52 40.567 53.567 39 55.5 39 57.433 39 59 40.567 59 42.5Z" fill="#DBB4B1" fill-opacity="0.3"/><path d="M72 42.5C72 44.433 70.433 46 68.5 46 66.567 46 65 44.433 65 42.5 65 40.567 66.567 39 68.5 39 70.433 39 72 40.567 72 42.5Z" fill="#DBB4B1" fill-opacity="0.3"/><path d="M85 42.5C85 44.433 83.433 46 81.5 46 79.567 46 78 44.433 78 42.5 78 40.567 79.567 39 81.5 39 83.433 39 85 40.567 85 42.5Z" fill="#DBB4B1" fill-opacity="0.3"/><path d="M7 55.5C7 57.433 5.433 59 3.5 59 1.567 59 4.44089e-16 57.433 4.44089e-16 55.5 0 53.567 1.567 52 3.5 52 5.433 52 7 53.567 7 55.5Z" fill="#DBB4B1" fill-opacity="0.3"/><path d="M20 55.5C20 57.433 18.433 59 16.5 59 14.567 59 13 57.433 13 55.5 13 53.567 14.567 52 16.5 52 18.433 52 20 53.567 20 55.5Z" fill="#DBB4B1" fill-opacity="0.3"/><path d="M33 55.5C33 57.433 31.433 59 29.5 59 27.567 59 26 57.433 26 55.5 26 53.567 27.567 52 29.5 52 31.433 52 33 53.567 33 55.5Z" fill="#DBB4B1" fill-opacity="0.3"/><path d="M46 55.5C46 57.433 44.433 59 42.5 59 40.567 59 39 57.433 39 55.5 39 53.567 40.567 52 42.5 52 44.433 52 46 53.567 46 55.5Z" fill="#DBB4B1" fill-opacity="0.3"/><path d="M59 55.5C59 57.433 57.433 59 55.5 59 53.567 59 52 57.433 52 55.5 52 53.567 53.567 52 55.5 52 57.433 52 59 53.567 59 55.5Z" fill="#DBB4B1" fill-opacity="0.3"/><path d="M72 55.5C72 57.433 70.433 59 68.5 59 66.567 59 65 57.433 65 55.5 65 53.567 66.567 52 68.5 52 70.433 52 72 53.567 72 55.5Z" fill="#DBB4B1" fill-opacity="0.3"/><path d="M85 55.5C85 57.433 83.433 59 81.5 59 79.567 59 78 57.433 78 55.5 78 53.567 79.567 52 81.5 52 83.433 52 85 53.567 85 55.5Z" fill="#DBB4B1" fill-opacity="0.3"/><path d="M98 3.5C98 5.433 96.433 7 94.5 7 92.567 7 91 5.433 91 3.5 91 1.567 92.567 0 94.5 -4.44089e-16 96.433 -8.88178e-16 98 1.567 98 3.5Z" fill="#DBB4B1" fill-opacity="0.3"/><path d="M111 3.5C111 5.433 109.433 7 107.5 7 105.567 7 104 5.433 104 3.5 104 1.567 105.567 0 107.5 -4.44089e-16 109.433 -8.88178e-16 111 1.567 111 3.5Z" fill="#DBB4B1" fill-opacity="0.3"/><path d="M124 3.5C124 5.433 122.433 7 120.5 7 118.567 7 117 5.433 117 3.5 117 1.567 118.567 0 120.5 -4.44089e-16 122.433 -8.88178e-16 124 1.567 124 3.5Z" fill="#DBB4B1" fill-opacity="0.3"/><path d="M137 3.5C137 5.433 135.433 7 133.5 7 131.567 7 130 5.433 130 3.5 130 1.567 131.567 0 133.5 -4.44089e-16 135.433 -8.88178e-16 137 1.567 137 3.5Z" fill="#DBB4B1" fill-opacity="0.3"/><path d="M150 3.5C150 5.433 148.433 7 146.5 7 144.567 7 143 5.433 143 3.5 143 1.567 144.567 0 146.5 -4.44089e-16 148.433 -8.88178e-16 150 1.567 150 3.5Z" fill="#DBB4B1" fill-opacity="0.3"/><path d="M163 3.5C163 5.433 161.433 7 159.5 7 157.567 7 156 5.433 156 3.5 156 1.567 157.567 0 159.5 -4.44089e-16 161.433 -8.88178e-16 163 1.567 163 3.5Z" fill="#DBB4B1" fill-opacity="0.3"/><path d="M176 3.5C176 5.433 174.433 7 172.5 7 170.567 7 169 5.433 169 3.5 169 1.567 170.567 0 172.5 -4.44089e-16 174.433 -8.88178e-16 176 1.567 176 3.5Z" fill="#DBB4B1" fill-opacity="0.3"/><path d="M98 16.5C98 18.433 96.433 20 94.5 20 92.567 20 91 18.433 91 16.5 91 14.567 92.567 13 94.5 13 96.433 13 98 14.567 98 16.5Z" fill="#DBB4B1" fill-opacity="0.3"/><path d="M111 16.5C111 18.433 109.433 20 107.5 20 105.567 20 104 18.433 104 16.5 104 14.567 105.567 13 107.5 13 109.433 13 111 14.567 111 16.5Z" fill="#DBB4B1" fill-opacity="0.3"/><path d="M124 16.5C124 18.433 122.433 20 120.5 20 118.567 20 117 18.433 117 16.5 117 14.567 118.567 13 120.5 13 122.433 13 124 14.567 124 16.5Z" fill="#DBB4B1" fill-opacity="0.3"/><path d="M137 16.5C137 18.433 135.433 20 133.5 20 131.567 20 130 18.433 130 16.5 130 14.567 131.567 13 133.5 13 135.433 13 137 14.567 137 16.5Z" fill="#DBB4B1" fill-opacity="0.3"/><path d="M150 16.5C150 18.433 148.433 20 146.5 20 144.567 20 143 18.433 143 16.5 143 14.567 144.567 13 146.5 13 148.433 13 150 14.567 150 16.5Z" fill="#DBB4B1" fill-opacity="0.3"/><path d="M163 16.5C163 18.433 161.433 20 159.5 20 157.567 20 156 18.433 156 16.5 156 14.567 157.567 13 159.5 13 161.433 13 163 14.567 163 16.5Z" fill="#DBB4B1" fill-opacity="0.3"/><path d="M176 16.5C176 18.433 174.433 20 172.5 20 170.567 20 169 18.433 169 16.5 169 14.567 170.567 13 172.5 13 174.433 13 176 14.567 176 16.5Z" fill="#DBB4B1" fill-opacity="0.3"/><path d="M98 29.5C98 31.433 96.433 33 94.5 33 92.567 33 91 31.433 91 29.5 91 27.567 92.567 26 94.5 26 96.433 26 98 27.567 98 29.5Z" fill="#DBB4B1" fill-opacity="0.3"/><path d="M111 29.5C111 31.433 109.433 33 107.5 33 105.567 33 104 31.433 104 29.5 104 27.567 105.567 26 107.5 26 109.433 26 111 27.567 111 29.5Z" fill="#DBB4B1" fill-opacity="0.3"/><path d="M124 29.5C124 31.433 122.433 33 120.5 33 118.567 33 117 31.433 117 29.5 117 27.567 118.567 26 120.5 26 122.433 26 124 27.567 124 29.5Z" fill="#DBB4B1" fill-opacity="0.3"/><path d="M137 29.5C137 31.433 135.433 33 133.5 33 131.567 33 130 31.433 130 29.5 130 27.567 131.567 26 133.5 26 135.433 26 137 27.567 137 29.5Z" fill="#DBB4B1" fill-opacity="0.3"/><path d="M150 29.5C150 31.433 148.433 33 146.5 33 144.567 33 143 31.433 143 29.5 143 27.567 144.567 26 146.5 26 148.433 26 150 27.567 150 29.5Z" fill="#DBB4B1" fill-opacity="0.3"/><path d="M163 29.5C163 31.433 161.433 33 159.5 33 157.567 33 156 31.433 156 29.5 156 27.567 157.567 26 159.5 26 161.433 26 163 27.567 163 29.5Z" fill="#DBB4B1" fill-opacity="0.3"/><path d="M176 29.5C176 31.433 174.433 33 172.5 33 170.567 33 169 31.433 169 29.5 169 27.567 170.567 26 172.5 26 174.433 26 176 27.567 176 29.5Z" fill="#DBB4B1" fill-opacity="0.3"/><path d="M98 42.5C98 44.433 96.433 46 94.5 46 92.567 46 91 44.433 91 42.5 91 40.567 92.567 39 94.5 39 96.433 39 98 40.567 98 42.5Z" fill="#DBB4B1" fill-opacity="0.3"/><path d="M111 42.5C111 44.433 109.433 46 107.5 46 105.567 46 104 44.433 104 42.5 104 40.567 105.567 39 107.5 39 109.433 39 111 40.567 111 42.5Z" fill="#DBB4B1" fill-opacity="0.3"/><path d="M124 42.5C124 44.433 122.433 46 120.5 46 118.567 46 117 44.433 117 42.5 117 40.567 118.567 39 120.5 39 122.433 39 124 40.567 124 42.5Z" fill="#DBB4B1" fill-opacity="0.3"/><path d="M137 42.5C137 44.433 135.433 46 133.5 46 131.567 46 130 44.433 130 42.5 130 40.567 131.567 39 133.5 39 135.433 39 137 40.567 137 42.5Z" fill="#DBB4B1" fill-opacity="0.3"/><path d="M150 42.5C150 44.433 148.433 46 146.5 46 144.567 46 143 44.433 143 42.5 143 40.567 144.567 39 146.5 39 148.433 39 150 40.567 150 42.5Z" fill="#DBB4B1" fill-opacity="0.3"/><path d="M163 42.5C163 44.433 161.433 46 159.5 46 157.567 46 156 44.433 156 42.5 156 40.567 157.567 39 159.5 39 161.433 39 163 40.567 163 42.5Z" fill="#DBB4B1" fill-opacity="0.3"/><path d="M176 42.5C176 44.433 174.433 46 172.5 46 170.567 46 169 44.433 169 42.5 169 40.567 170.567 39 172.5 39 174.433 39 176 40.567 176 42.5Z" fill="#DBB4B1" fill-opacity="0.3"/><path d="M98 55.5C98 57.433 96.433 59 94.5 59 92.567 59 91 57.433 91 55.5 91 53.567 92.567 52 94.5 52 96.433 52 98 53.567 98 55.5Z" fill="#DBB4B1" fill-opacity="0.3"/><path d="M111 55.5C111 57.433 109.433 59 107.5 59 105.567 59 104 57.433 104 55.5 104 53.567 105.567 52 107.5 52 109.433 52 111 53.567 111 55.5Z" fill="#DBB4B1" fill-opacity="0.3"/><path d="M124 55.5C124 57.433 122.433 59 120.5 59 118.567 59 117 57.433 117 55.5 117 53.567 118.567 52 120.5 52 122.433 52 124 53.567 124 55.5Z" fill="#DBB4B1" fill-opacity="0.3"/><path d="M137 55.5C137 57.433 135.433 59 133.5 59 131.567 59 130 57.433 130 55.5 130 53.567 131.567 52 133.5 52 135.433 52 137 53.567 137 55.5Z" fill="#DBB4B1" fill-opacity="0.3"/><path d="M150 55.5C150 57.433 148.433 59 146.5 59 144.567 59 143 57.433 143 55.5 143 53.567 144.567 52 146.5 52 148.433 52 150 53.567 150 55.5Z" fill="#DBB4B1" fill-opacity="0.3"/><path d="M163 55.5C163 57.433 161.433 59 159.5 59 157.567 59 156 57.433 156 55.5 156 53.567 157.567 52 159.5 52 161.433 52 163 53.567 163 55.5Z" fill="#DBB4B1" fill-opacity="0.3"/><path d="M176 55.5C176 57.433 174.433 59 172.5 59 170.567 59 169 57.433 169 55.5 169 53.567 170.567 52 172.5 52 174.433 52 176 53.567 176 55.5Z" fill="#DBB4B1" fill-opacity="0.3"/><path d="M7 67.5C7 69.433 5.433 71 3.5 71 1.567 71 4.44089e-16 69.433 4.44089e-16 67.5 0 65.567 1.567 64 3.5 64 5.433 64 7 65.567 7 67.5Z" fill="#DBB4B1" fill-opacity="0.3"/><path d="M20 67.5C20 69.433 18.433 71 16.5 71 14.567 71 13 69.433 13 67.5 13 65.567 14.567 64 16.5 64 18.433 64 20 65.567 20 67.5Z" fill="#DBB4B1" fill-opacity="0.3"/><path d="M33 67.5C33 69.433 31.433 71 29.5 71 27.567 71 26 69.433 26 67.5 26 65.567 27.567 64 29.5 64 31.433 64 33 65.567 33 67.5Z" fill="#DBB4B1" fill-opacity="0.3"/><path d="M46 67.5C46 69.433 44.433 71 42.5 71 40.567 71 39 69.433 39 67.5 39 65.567 40.567 64 42.5 64 44.433 64 46 65.567 46 67.5Z" fill="#DBB4B1" fill-opacity="0.3"/><path d="M59 67.5C59 69.433 57.433 71 55.5 71 53.567 71 52 69.433 52 67.5 52 65.567 53.567 64 55.5 64 57.433 64 59 65.567 59 67.5Z" fill="#DBB4B1" fill-opacity="0.3"/><path d="M72 67.5C72 69.433 70.433 71 68.5 71 66.567 71 65 69.433 65 67.5 65 65.567 66.567 64 68.5 64 70.433 64 72 65.567 72 67.5Z" fill="#DBB4B1" fill-opacity="0.3"/><path d="M85 67.5C85 69.433 83.433 71 81.5 71 79.567 71 78 69.433 78 67.5 78 65.567 79.567 64 81.5 64 83.433 64 85 65.567 85 67.5Z" fill="#DBB4B1" fill-opacity="0.3"/><path d="M7 80.5C7 82.433 5.433 84 3.5 84 1.567 84 4.44089e-16 82.433 4.44089e-16 80.5 0 78.567 1.567 77 3.5 77 5.433 77 7 78.567 7 80.5Z" fill="#DBB4B1" fill-opacity="0.3"/><path d="M20 80.5C20 82.433 18.433 84 16.5 84 14.567 84 13 82.433 13 80.5 13 78.567 14.567 77 16.5 77 18.433 77 20 78.567 20 80.5Z" fill="#DBB4B1" fill-opacity="0.3"/><path d="M33 80.5C33 82.433 31.433 84 29.5 84 27.567 84 26 82.433 26 80.5 26 78.567 27.567 77 29.5 77 31.433 77 33 78.567 33 80.5Z" fill="#DBB4B1" fill-opacity="0.3"/><path d="M46 80.5C46 82.433 44.433 84 42.5 84 40.567 84 39 82.433 39 80.5 39 78.567 40.567 77 42.5 77 44.433 77 46 78.567 46 80.5Z" fill="#DBB4B1" fill-opacity="0.3"/><path d="M59 80.5C59 82.433 57.433 84 55.5 84 53.567 84 52 82.433 52 80.5 52 78.567 53.567 77 55.5 77 57.433 77 59 78.567 59 80.5Z" fill="#DBB4B1" fill-opacity="0.3"/><path d="M72 80.5C72 82.433 70.433 84 68.5 84 66.567 84 65 82.433 65 80.5 65 78.567 66.567 77 68.5 77 70.433 77 72 78.567 72 80.5Z" fill="#DBB4B1" fill-opacity="0.3"/><path d="M85 80.5C85 82.433 83.433 84 81.5 84 79.567 84 78 82.433 78 80.5 78 78.567 79.567 77 81.5 77 83.433 77 85 78.567 85 80.5Z" fill="#DBB4B1" fill-opacity="0.3"/><path d="M7 93.5C7 95.433 5.433 97 3.5 97 1.567 97 4.44089e-16 95.433 4.44089e-16 93.5 0 91.567 1.567 90 3.5 90 5.433 90 7 91.567 7 93.5Z" fill="#DBB4B1" fill-opacity="0.3"/><path d="M20 93.5C20 95.433 18.433 97 16.5 97 14.567 97 13 95.433 13 93.5 13 91.567 14.567 90 16.5 90 18.433 90 20 91.567 20 93.5Z" fill="#DBB4B1" fill-opacity="0.3"/><path d="M33 93.5C33 95.433 31.433 97 29.5 97 27.567 97 26 95.433 26 93.5 26 91.567 27.567 90 29.5 90 31.433 90 33 91.567 33 93.5Z" fill="#DBB4B1" fill-opacity="0.3"/><path d="M46 93.5C46 95.433 44.433 97 42.5 97 40.567 97 39 95.433 39 93.5 39 91.567 40.567 90 42.5 90 44.433 90 46 91.567 46 93.5Z" fill="#DBB4B1" fill-opacity="0.3"/><path d="M59 93.5C59 95.433 57.433 97 55.5 97 53.567 97 52 95.433 52 93.5 52 91.567 53.567 90 55.5 90 57.433 90 59 91.567 59 93.5Z" fill="#DBB4B1" fill-opacity="0.3"/><path d="M72 93.5C72 95.433 70.433 97 68.5 97 66.567 97 65 95.433 65 93.5 65 91.567 66.567 90 68.5 90 70.433 90 72 91.567 72 93.5Z" fill="#DBB4B1" fill-opacity="0.3"/><path d="M85 93.5C85 95.433 83.433 97 81.5 97 79.567 97 78 95.433 78 93.5 78 91.567 79.567 90 81.5 90 83.433 90 85 91.567 85 93.5Z" fill="#DBB4B1" fill-opacity="0.3"/><path d="M7 106.5C7 108.433 5.433 110 3.5 110 1.567 110 4.44089e-16 108.433 4.44089e-16 106.5 0 104.567 1.567 103 3.5 103 5.433 103 7 104.567 7 106.5Z" fill="#DBB4B1" fill-opacity="0.3"/><path d="M20 106.5C20 108.433 18.433 110 16.5 110 14.567 110 13 108.433 13 106.5 13 104.567 14.567 103 16.5 103 18.433 103 20 104.567 20 106.5Z" fill="#DBB4B1" fill-opacity="0.3"/><path d="M33 106.5C33 108.433 31.433 110 29.5 110 27.567 110 26 108.433 26 106.5 26 104.567 27.567 103 29.5 103 31.433 103 33 104.567 33 106.5Z" fill="#DBB4B1" fill-opacity="0.3"/><path d="M46 106.5C46 108.433 44.433 110 42.5 110 40.567 110 39 108.433 39 106.5 39 104.567 40.567 103 42.5 103 44.433 103 46 104.567 46 106.5Z" fill="#DBB4B1" fill-opacity="0.3"/><path d="M59 106.5C59 108.433 57.433 110 55.5 110 53.567 110 52 108.433 52 106.5 52 104.567 53.567 103 55.5 103 57.433 103 59 104.567 59 106.5Z" fill="#DBB4B1" fill-opacity="0.3"/><path d="M72 106.5C72 108.433 70.433 110 68.5 110 66.567 110 65 108.433 65 106.5 65 104.567 66.567 103 68.5 103 70.433 103 72 104.567 72 106.5Z" fill="#DBB4B1" fill-opacity="0.3"/><path d="M85 106.5C85 108.433 83.433 110 81.5 110 79.567 110 78 108.433 78 106.5 78 104.567 79.567 103 81.5 103 83.433 103 85 104.567 85 106.5Z" fill="#DBB4B1" fill-opacity="0.3"/><path d="M7 119.5C7 121.433 5.433 123 3.5 123 1.567 123 4.44089e-16 121.433 4.44089e-16 119.5 0 117.567 1.567 116 3.5 116 5.433 116 7 117.567 7 119.5Z" fill="#DBB4B1" fill-opacity="0.3"/><path d="M20 119.5C20 121.433 18.433 123 16.5 123 14.567 123 13 121.433 13 119.5 13 117.567 14.567 116 16.5 116 18.433 116 20 117.567 20 119.5Z" fill="#DBB4B1" fill-opacity="0.3"/><path d="M33 119.5C33 121.433 31.433 123 29.5 123 27.567 123 26 121.433 26 119.5 26 117.567 27.567 116 29.5 116 31.433 116 33 117.567 33 119.5Z" fill="#DBB4B1" fill-opacity="0.3"/><path d="M46 119.5C46 121.433 44.433 123 42.5 123 40.567 123 39 121.433 39 119.5 39 117.567 40.567 116 42.5 116 44.433 116 46 117.567 46 119.5Z" fill="#DBB4B1" fill-opacity="0.3"/><path d="M59 119.5C59 121.433 57.433 123 55.5 123 53.567 123 52 121.433 52 119.5 52 117.567 53.567 116 55.5 116 57.433 116 59 117.567 59 119.5Z" fill="#DBB4B1" fill-opacity="0.3"/><path d="M72 119.5C72 121.433 70.433 123 68.5 123 66.567 123 65 121.433 65 119.5 65 117.567 66.567 116 68.5 116 70.433 116 72 117.567 72 119.5Z" fill="#DBB4B1" fill-opacity="0.3"/><path d="M85 119.5C85 121.433 83.433 123 81.5 123 79.567 123 78 121.433 78 119.5 78 117.567 79.567 116 81.5 116 83.433 116 85 117.567 85 119.5Z" fill="#DBB4B1" fill-opacity="0.3"/><path d="M98 67.5C98 69.433 96.433 71 94.5 71 92.567 71 91 69.433 91 67.5 91 65.567 92.567 64 94.5 64 96.433 64 98 65.567 98 67.5Z" fill="#DBB4B1" fill-opacity="0.3"/><path d="M111 67.5C111 69.433 109.433 71 107.5 71 105.567 71 104 69.433 104 67.5 104 65.567 105.567 64 107.5 64 109.433 64 111 65.567 111 67.5Z" fill="#DBB4B1" fill-opacity="0.3"/><path d="M124 67.5C124 69.433 122.433 71 120.5 71 118.567 71 117 69.433 117 67.5 117 65.567 118.567 64 120.5 64 122.433 64 124 65.567 124 67.5Z" fill="#DBB4B1" fill-opacity="0.3"/><path d="M137 67.5C137 69.433 135.433 71 133.5 71 131.567 71 130 69.433 130 67.5 130 65.567 131.567 64 133.5 64 135.433 64 137 65.567 137 67.5Z" fill="#DBB4B1" fill-opacity="0.3"/><path d="M150 67.5C150 69.433 148.433 71 146.5 71 144.567 71 143 69.433 143 67.5 143 65.567 144.567 64 146.5 64 148.433 64 150 65.567 150 67.5Z" fill="#DBB4B1" fill-opacity="0.3"/><path d="M163 67.5C163 69.433 161.433 71 159.5 71 157.567 71 156 69.433 156 67.5 156 65.567 157.567 64 159.5 64 161.433 64 163 65.567 163 67.5Z" fill="#DBB4B1" fill-opacity="0.3"/><path d="M176 67.5C176 69.433 174.433 71 172.5 71 170.567 71 169 69.433 169 67.5 169 65.567 170.567 64 172.5 64 174.433 64 176 65.567 176 67.5Z" fill="#DBB4B1" fill-opacity="0.3"/><path d="M98 80.5C98 82.433 96.433 84 94.5 84 92.567 84 91 82.433 91 80.5 91 78.567 92.567 77 94.5 77 96.433 77 98 78.567 98 80.5Z" fill="#DBB4B1" fill-opacity="0.3"/><path d="M111 80.5C111 82.433 109.433 84 107.5 84 105.567 84 104 82.433 104 80.5 104 78.567 105.567 77 107.5 77 109.433 77 111 78.567 111 80.5Z" fill="#DBB4B1" fill-opacity="0.3"/><path d="M124 80.5C124 82.433 122.433 84 120.5 84 118.567 84 117 82.433 117 80.5 117 78.567 118.567 77 120.5 77 122.433 77 124 78.567 124 80.5Z" fill="#DBB4B1" fill-opacity="0.3"/><path d="M137 80.5C137 82.433 135.433 84 133.5 84 131.567 84 130 82.433 130 80.5 130 78.567 131.567 77 133.5 77 135.433 77 137 78.567 137 80.5Z" fill="#DBB4B1" fill-opacity="0.3"/><path d="M150 80.5C150 82.433 148.433 84 146.5 84 144.567 84 143 82.433 143 80.5 143 78.567 144.567 77 146.5 77 148.433 77 150 78.567 150 80.5Z" fill="#DBB4B1" fill-opacity="0.3"/><path d="M163 80.5C163 82.433 161.433 84 159.5 84 157.567 84 156 82.433 156 80.5 156 78.567 157.567 77 159.5 77 161.433 77 163 78.567 163 80.5Z" fill="#DBB4B1" fill-opacity="0.3"/><path d="M176 80.5C176 82.433 174.433 84 172.5 84 170.567 84 169 82.433 169 80.5 169 78.567 170.567 77 172.5 77 174.433 77 176 78.567 176 80.5Z" fill="#DBB4B1" fill-opacity="0.3"/><path d="M98 93.5C98 95.433 96.433 97 94.5 97 92.567 97 91 95.433 91 93.5 91 91.567 92.567 90 94.5 90 96.433 90 98 91.567 98 93.5Z" fill="#DBB4B1" fill-opacity="0.3"/><path d="M111 93.5C111 95.433 109.433 97 107.5 97 105.567 97 104 95.433 104 93.5 104 91.567 105.567 90 107.5 90 109.433 90 111 91.567 111 93.5Z" fill="#DBB4B1" fill-opacity="0.3"/><path d="M124 93.5C124 95.433 122.433 97 120.5 97 118.567 97 117 95.433 117 93.5 117 91.567 118.567 90 120.5 90 122.433 90 124 91.567 124 93.5Z" fill="#DBB4B1" fill-opacity="0.3"/><path d="M137 93.5C137 95.433 135.433 97 133.5 97 131.567 97 130 95.433 130 93.5 130 91.567 131.567 90 133.5 90 135.433 90 137 91.567 137 93.5Z" fill="#DBB4B1" fill-opacity="0.3"/><path d="M150 93.5C150 95.433 148.433 97 146.5 97 144.567 97 143 95.433 143 93.5 143 91.567 144.567 90 146.5 90 148.433 90 150 91.567 150 93.5Z" fill="#DBB4B1" fill-opacity="0.3"/><path d="M163 93.5C163 95.433 161.433 97 159.5 97 157.567 97 156 95.433 156 93.5 156 91.567 157.567 90 159.5 90 161.433 90 163 91.567 163 93.5Z" fill="#DBB4B1" fill-opacity="0.3"/><path d="M176 93.5C176 95.433 174.433 97 172.5 97 170.567 97 169 95.433 169 93.5 169 91.567 170.567 90 172.5 90 174.433 90 176 91.567 176 93.5Z" fill="#DBB4B1" fill-opacity="0.3"/><path d="M98 106.5C98 108.433 96.433 110 94.5 110 92.567 110 91 108.433 91 106.5 91 104.567 92.567 103 94.5 103 96.433 103 98 104.567 98 106.5Z" fill="#DBB4B1" fill-opacity="0.3"/><path d="M111 106.5C111 108.433 109.433 110 107.5 110 105.567 110 104 108.433 104 106.5 104 104.567 105.567 103 107.5 103 109.433 103 111 104.567 111 106.5Z" fill="#DBB4B1" fill-opacity="0.3"/><path d="M124 106.5C124 108.433 122.433 110 120.5 110 118.567 110 117 108.433 117 106.5 117 104.567 118.567 103 120.5 103 122.433 103 124 104.567 124 106.5Z" fill="#DBB4B1" fill-opacity="0.3"/><path d="M137 106.5C137 108.433 135.433 110 133.5 110 131.567 110 130 108.433 130 106.5 130 104.567 131.567 103 133.5 103 135.433 103 137 104.567 137 106.5Z" fill="#DBB4B1" fill-opacity="0.3"/><path d="M150 106.5C150 108.433 148.433 110 146.5 110 144.567 110 143 108.433 143 106.5 143 104.567 144.567 103 146.5 103 148.433 103 150 104.567 150 106.5Z" fill="#DBB4B1" fill-opacity="0.3"/><path d="M163 106.5C163 108.433 161.433 110 159.5 110 157.567 110 156 108.433 156 106.5 156 104.567 157.567 103 159.5 103 161.433 103 163 104.567 163 106.5Z" fill="#DBB4B1" fill-opacity="0.3"/><path d="M176 106.5C176 108.433 174.433 110 172.5 110 170.567 110 169 108.433 169 106.5 169 104.567 170.567 103 172.5 103 174.433 103 176 104.567 176 106.5Z" fill="#DBB4B1" fill-opacity="0.3"/><path d="M98 119.5C98 121.433 96.433 123 94.5 123 92.567 123 91 121.433 91 119.5 91 117.567 92.567 116 94.5 116 96.433 116 98 117.567 98 119.5Z" fill="#DBB4B1" fill-opacity="0.3"/><path d="M111 119.5C111 121.433 109.433 123 107.5 123 105.567 123 104 121.433 104 119.5 104 117.567 105.567 116 107.5 116 109.433 116 111 117.567 111 119.5Z" fill="#DBB4B1" fill-opacity="0.3"/><path d="M124 119.5C124 121.433 122.433 123 120.5 123 118.567 123 117 121.433 117 119.5 117 117.567 118.567 116 120.5 116 122.433 116 124 117.567 124 119.5Z" fill="#DBB4B1" fill-opacity="0.3"/><path d="M137 119.5C137 121.433 135.433 123 133.5 123 131.567 123 130 121.433 130 119.5 130 117.567 131.567 116 133.5 116 135.433 116 137 117.567 137 119.5Z" fill="#DBB4B1" fill-opacity="0.3"/><path d="M150 119.5C150 121.433 148.433 123 146.5 123 144.567 123 143 121.433 143 119.5 143 117.567 144.567 116 146.5 116 148.433 116 150 117.567 150 119.5Z" fill="#DBB4B1" fill-opacity="0.3"/><path d="M163 119.5C163 121.433 161.433 123 159.5 123 157.567 123 156 121.433 156 119.5 156 117.567 157.567 116 159.5 116 161.433 116 163 117.567 163 119.5Z" fill="#DBB4B1" fill-opacity="0.3"/><path d="M176 119.5C176 121.433 174.433 123 172.5 123 170.567 123 169 121.433 169 119.5 169 117.567 170.567 116 172.5 116 174.433 116 176 117.567 176 119.5Z" fill="#DBB4B1" fill-opacity="0.3"/></g></svg>