<svg width="176" height="123" viewBox="0 0 176 123" fill="none" xmlns="http://www.w3.org/2000/svg">
<circle cx="3.5" cy="3.5" r="3.5" fill="#D9BEA5" fill-opacity="0.3"/>
<circle cx="16.5" cy="3.5" r="3.5" fill="#D9BEA5" fill-opacity="0.3"/>
<circle cx="29.5" cy="3.5" r="3.5" fill="#D9BEA5" fill-opacity="0.3"/>
<circle cx="42.5" cy="3.5" r="3.5" fill="#D9BEA5" fill-opacity="0.3"/>
<circle cx="55.5" cy="3.5" r="3.5" fill="#D9BEA5" fill-opacity="0.3"/>
<circle cx="68.5" cy="3.5" r="3.5" fill="#D9BEA5" fill-opacity="0.3"/>
<circle cx="81.5" cy="3.5" r="3.5" fill="#D9BEA5" fill-opacity="0.3"/>
<circle cx="3.5" cy="16.5" r="3.5" fill="#D9BEA5" fill-opacity="0.3"/>
<circle cx="16.5" cy="16.5" r="3.5" fill="#D9BEA5" fill-opacity="0.3"/>
<circle cx="29.5" cy="16.5" r="3.5" fill="#D9BEA5" fill-opacity="0.3"/>
<circle cx="42.5" cy="16.5" r="3.5" fill="#D9BEA5" fill-opacity="0.3"/>
<circle cx="55.5" cy="16.5" r="3.5" fill="#D9BEA5" fill-opacity="0.3"/>
<circle cx="68.5" cy="16.5" r="3.5" fill="#D9BEA5" fill-opacity="0.3"/>
<circle cx="81.5" cy="16.5" r="3.5" fill="#D9BEA5" fill-opacity="0.3"/>
<circle cx="3.5" cy="29.5" r="3.5" fill="#D9BEA5" fill-opacity="0.3"/>
<circle cx="16.5" cy="29.5" r="3.5" fill="#D9BEA5" fill-opacity="0.3"/>
<circle cx="29.5" cy="29.5" r="3.5" fill="#D9BEA5" fill-opacity="0.3"/>
<circle cx="42.5" cy="29.5" r="3.5" fill="#D9BEA5" fill-opacity="0.3"/>
<circle cx="55.5" cy="29.5" r="3.5" fill="#D9BEA5" fill-opacity="0.3"/>
<circle cx="68.5" cy="29.5" r="3.5" fill="#D9BEA5" fill-opacity="0.3"/>
<circle cx="81.5" cy="29.5" r="3.5" fill="#D9BEA5" fill-opacity="0.3"/>
<circle cx="3.5" cy="42.5" r="3.5" fill="#D9BEA5" fill-opacity="0.3"/>
<circle cx="16.5" cy="42.5" r="3.5" fill="#D9BEA5" fill-opacity="0.3"/>
<circle cx="29.5" cy="42.5" r="3.5" fill="#D9BEA5" fill-opacity="0.3"/>
<circle cx="42.5" cy="42.5" r="3.5" fill="#D9BEA5" fill-opacity="0.3"/>
<circle cx="55.5" cy="42.5" r="3.5" fill="#D9BEA5" fill-opacity="0.3"/>
<circle cx="68.5" cy="42.5" r="3.5" fill="#D9BEA5" fill-opacity="0.3"/>
<circle cx="81.5" cy="42.5" r="3.5" fill="#D9BEA5" fill-opacity="0.3"/>
<circle cx="3.5" cy="55.5" r="3.5" fill="#D9BEA5" fill-opacity="0.3"/>
<circle cx="16.5" cy="55.5" r="3.5" fill="#D9BEA5" fill-opacity="0.3"/>
<circle cx="29.5" cy="55.5" r="3.5" fill="#D9BEA5" fill-opacity="0.3"/>
<circle cx="42.5" cy="55.5" r="3.5" fill="#D9BEA5" fill-opacity="0.3"/>
<circle cx="55.5" cy="55.5" r="3.5" fill="#D9BEA5" fill-opacity="0.3"/>
<circle cx="68.5" cy="55.5" r="3.5" fill="#D9BEA5" fill-opacity="0.3"/>
<circle cx="81.5" cy="55.5" r="3.5" fill="#D9BEA5" fill-opacity="0.3"/>
<circle cx="94.5" cy="3.5" r="3.5" fill="#D9BEA5" fill-opacity="0.3"/>
<circle cx="107.5" cy="3.5" r="3.5" fill="#D9BEA5" fill-opacity="0.3"/>
<circle cx="120.5" cy="3.5" r="3.5" fill="#D9BEA5" fill-opacity="0.3"/>
<circle cx="133.5" cy="3.5" r="3.5" fill="#D9BEA5" fill-opacity="0.3"/>
<circle cx="146.5" cy="3.5" r="3.5" fill="#D9BEA5" fill-opacity="0.3"/>
<circle cx="159.5" cy="3.5" r="3.5" fill="#D9BEA5" fill-opacity="0.3"/>
<circle cx="172.5" cy="3.5" r="3.5" fill="#D9BEA5" fill-opacity="0.3"/>
<circle cx="94.5" cy="16.5" r="3.5" fill="#D9BEA5" fill-opacity="0.3"/>
<circle cx="107.5" cy="16.5" r="3.5" fill="#D9BEA5" fill-opacity="0.3"/>
<circle cx="120.5" cy="16.5" r="3.5" fill="#D9BEA5" fill-opacity="0.3"/>
<circle cx="133.5" cy="16.5" r="3.5" fill="#D9BEA5" fill-opacity="0.3"/>
<circle cx="146.5" cy="16.5" r="3.5" fill="#D9BEA5" fill-opacity="0.3"/>
<circle cx="159.5" cy="16.5" r="3.5" fill="#D9BEA5" fill-opacity="0.3"/>
<circle cx="172.5" cy="16.5" r="3.5" fill="#D9BEA5" fill-opacity="0.3"/>
<circle cx="94.5" cy="29.5" r="3.5" fill="#D9BEA5" fill-opacity="0.3"/>
<circle cx="107.5" cy="29.5" r="3.5" fill="#D9BEA5" fill-opacity="0.3"/>
<circle cx="120.5" cy="29.5" r="3.5" fill="#D9BEA5" fill-opacity="0.3"/>
<circle cx="133.5" cy="29.5" r="3.5" fill="#D9BEA5" fill-opacity="0.3"/>
<circle cx="146.5" cy="29.5" r="3.5" fill="#D9BEA5" fill-opacity="0.3"/>
<circle cx="159.5" cy="29.5" r="3.5" fill="#D9BEA5" fill-opacity="0.3"/>
<circle cx="172.5" cy="29.5" r="3.5" fill="#D9BEA5" fill-opacity="0.3"/>
<circle cx="94.5" cy="42.5" r="3.5" fill="#D9BEA5" fill-opacity="0.3"/>
<circle cx="107.5" cy="42.5" r="3.5" fill="#D9BEA5" fill-opacity="0.3"/>
<circle cx="120.5" cy="42.5" r="3.5" fill="#D9BEA5" fill-opacity="0.3"/>
<circle cx="133.5" cy="42.5" r="3.5" fill="#D9BEA5" fill-opacity="0.3"/>
<circle cx="146.5" cy="42.5" r="3.5" fill="#D9BEA5" fill-opacity="0.3"/>
<circle cx="159.5" cy="42.5" r="3.5" fill="#D9BEA5" fill-opacity="0.3"/>
<circle cx="172.5" cy="42.5" r="3.5" fill="#D9BEA5" fill-opacity="0.3"/>
<circle cx="94.5" cy="55.5" r="3.5" fill="#D9BEA5" fill-opacity="0.3"/>
<circle cx="107.5" cy="55.5" r="3.5" fill="#D9BEA5" fill-opacity="0.3"/>
<circle cx="120.5" cy="55.5" r="3.5" fill="#D9BEA5" fill-opacity="0.3"/>
<circle cx="133.5" cy="55.5" r="3.5" fill="#D9BEA5" fill-opacity="0.3"/>
<circle cx="146.5" cy="55.5" r="3.5" fill="#D9BEA5" fill-opacity="0.3"/>
<circle cx="159.5" cy="55.5" r="3.5" fill="#D9BEA5" fill-opacity="0.3"/>
<circle cx="172.5" cy="55.5" r="3.5" fill="#D9BEA5" fill-opacity="0.3"/>
<circle cx="3.5" cy="67.5" r="3.5" fill="#D9BEA5" fill-opacity="0.3"/>
<circle cx="16.5" cy="67.5" r="3.5" fill="#D9BEA5" fill-opacity="0.3"/>
<circle cx="29.5" cy="67.5" r="3.5" fill="#D9BEA5" fill-opacity="0.3"/>
<circle cx="42.5" cy="67.5" r="3.5" fill="#D9BEA5" fill-opacity="0.3"/>
<circle cx="55.5" cy="67.5" r="3.5" fill="#D9BEA5" fill-opacity="0.3"/>
<circle cx="68.5" cy="67.5" r="3.5" fill="#D9BEA5" fill-opacity="0.3"/>
<circle cx="81.5" cy="67.5" r="3.5" fill="#D9BEA5" fill-opacity="0.3"/>
<circle cx="3.5" cy="80.5" r="3.5" fill="#D9BEA5" fill-opacity="0.3"/>
<circle cx="16.5" cy="80.5" r="3.5" fill="#D9BEA5" fill-opacity="0.3"/>
<circle cx="29.5" cy="80.5" r="3.5" fill="#D9BEA5" fill-opacity="0.3"/>
<circle cx="42.5" cy="80.5" r="3.5" fill="#D9BEA5" fill-opacity="0.3"/>
<circle cx="55.5" cy="80.5" r="3.5" fill="#D9BEA5" fill-opacity="0.3"/>
<circle cx="68.5" cy="80.5" r="3.5" fill="#D9BEA5" fill-opacity="0.3"/>
<circle cx="81.5" cy="80.5" r="3.5" fill="#D9BEA5" fill-opacity="0.3"/>
<circle cx="3.5" cy="93.5" r="3.5" fill="#D9BEA5" fill-opacity="0.3"/>
<circle cx="16.5" cy="93.5" r="3.5" fill="#D9BEA5" fill-opacity="0.3"/>
<circle cx="29.5" cy="93.5" r="3.5" fill="#D9BEA5" fill-opacity="0.3"/>
<circle cx="42.5" cy="93.5" r="3.5" fill="#D9BEA5" fill-opacity="0.3"/>
<circle cx="55.5" cy="93.5" r="3.5" fill="#D9BEA5" fill-opacity="0.3"/>
<circle cx="68.5" cy="93.5" r="3.5" fill="#D9BEA5" fill-opacity="0.3"/>
<circle cx="81.5" cy="93.5" r="3.5" fill="#D9BEA5" fill-opacity="0.3"/>
<circle cx="3.5" cy="106.5" r="3.5" fill="#D9BEA5" fill-opacity="0.3"/>
<circle cx="16.5" cy="106.5" r="3.5" fill="#D9BEA5" fill-opacity="0.3"/>
<circle cx="29.5" cy="106.5" r="3.5" fill="#D9BEA5" fill-opacity="0.3"/>
<circle cx="42.5" cy="106.5" r="3.5" fill="#D9BEA5" fill-opacity="0.3"/>
<circle cx="55.5" cy="106.5" r="3.5" fill="#D9BEA5" fill-opacity="0.3"/>
<circle cx="68.5" cy="106.5" r="3.5" fill="#D9BEA5" fill-opacity="0.3"/>
<circle cx="81.5" cy="106.5" r="3.5" fill="#D9BEA5" fill-opacity="0.3"/>
<circle cx="3.5" cy="119.5" r="3.5" fill="#D9BEA5" fill-opacity="0.3"/>
<circle cx="16.5" cy="119.5" r="3.5" fill="#D9BEA5" fill-opacity="0.3"/>
<circle cx="29.5" cy="119.5" r="3.5" fill="#D9BEA5" fill-opacity="0.3"/>
<circle cx="42.5" cy="119.5" r="3.5" fill="#D9BEA5" fill-opacity="0.3"/>
<circle cx="55.5" cy="119.5" r="3.5" fill="#D9BEA5" fill-opacity="0.3"/>
<circle cx="68.5" cy="119.5" r="3.5" fill="#D9BEA5" fill-opacity="0.3"/>
<circle cx="81.5" cy="119.5" r="3.5" fill="#D9BEA5" fill-opacity="0.3"/>
<circle cx="94.5" cy="67.5" r="3.5" fill="#D9BEA5" fill-opacity="0.3"/>
<circle cx="107.5" cy="67.5" r="3.5" fill="#D9BEA5" fill-opacity="0.3"/>
<circle cx="120.5" cy="67.5" r="3.5" fill="#D9BEA5" fill-opacity="0.3"/>
<circle cx="133.5" cy="67.5" r="3.5" fill="#D9BEA5" fill-opacity="0.3"/>
<circle cx="146.5" cy="67.5" r="3.5" fill="#D9BEA5" fill-opacity="0.3"/>
<circle cx="159.5" cy="67.5" r="3.5" fill="#D9BEA5" fill-opacity="0.3"/>
<circle cx="172.5" cy="67.5" r="3.5" fill="#D9BEA5" fill-opacity="0.3"/>
<circle cx="94.5" cy="80.5" r="3.5" fill="#D9BEA5" fill-opacity="0.3"/>
<circle cx="107.5" cy="80.5" r="3.5" fill="#D9BEA5" fill-opacity="0.3"/>
<circle cx="120.5" cy="80.5" r="3.5" fill="#D9BEA5" fill-opacity="0.3"/>
<circle cx="133.5" cy="80.5" r="3.5" fill="#D9BEA5" fill-opacity="0.3"/>
<circle cx="146.5" cy="80.5" r="3.5" fill="#D9BEA5" fill-opacity="0.3"/>
<circle cx="159.5" cy="80.5" r="3.5" fill="#D9BEA5" fill-opacity="0.3"/>
<circle cx="172.5" cy="80.5" r="3.5" fill="#D9BEA5" fill-opacity="0.3"/>
<circle cx="94.5" cy="93.5" r="3.5" fill="#D9BEA5" fill-opacity="0.3"/>
<circle cx="107.5" cy="93.5" r="3.5" fill="#D9BEA5" fill-opacity="0.3"/>
<circle cx="120.5" cy="93.5" r="3.5" fill="#D9BEA5" fill-opacity="0.3"/>
<circle cx="133.5" cy="93.5" r="3.5" fill="#D9BEA5" fill-opacity="0.3"/>
<circle cx="146.5" cy="93.5" r="3.5" fill="#D9BEA5" fill-opacity="0.3"/>
<circle cx="159.5" cy="93.5" r="3.5" fill="#D9BEA5" fill-opacity="0.3"/>
<circle cx="172.5" cy="93.5" r="3.5" fill="#D9BEA5" fill-opacity="0.3"/>
<circle cx="94.5" cy="106.5" r="3.5" fill="#D9BEA5" fill-opacity="0.3"/>
<circle cx="107.5" cy="106.5" r="3.5" fill="#D9BEA5" fill-opacity="0.3"/>
<circle cx="120.5" cy="106.5" r="3.5" fill="#D9BEA5" fill-opacity="0.3"/>
<circle cx="133.5" cy="106.5" r="3.5" fill="#D9BEA5" fill-opacity="0.3"/>
<circle cx="146.5" cy="106.5" r="3.5" fill="#D9BEA5" fill-opacity="0.3"/>
<circle cx="159.5" cy="106.5" r="3.5" fill="#D9BEA5" fill-opacity="0.3"/>
<circle cx="172.5" cy="106.5" r="3.5" fill="#D9BEA5" fill-opacity="0.3"/>
<circle cx="94.5" cy="119.5" r="3.5" fill="#D9BEA5" fill-opacity="0.3"/>
<circle cx="107.5" cy="119.5" r="3.5" fill="#D9BEA5" fill-opacity="0.3"/>
<circle cx="120.5" cy="119.5" r="3.5" fill="#D9BEA5" fill-opacity="0.3"/>
<circle cx="133.5" cy="119.5" r="3.5" fill="#D9BEA5" fill-opacity="0.3"/>
<circle cx="146.5" cy="119.5" r="3.5" fill="#D9BEA5" fill-opacity="0.3"/>
<circle cx="159.5" cy="119.5" r="3.5" fill="#D9BEA5" fill-opacity="0.3"/>
<circle cx="172.5" cy="119.5" r="3.5" fill="#D9BEA5" fill-opacity="0.3"/>
</svg>
